<mxfile host="Electron" modified="2024-04-24T22:10:50.779Z" agent="Mozilla/5.0 (Windows NT 10.0; Win64; x64) AppleWebKit/537.36 (KHTML, like Gecko) draw.io/22.1.18 Chrome/120.0.6099.199 Electron/28.1.2 Safari/537.36" etag="OJvRmY-vJYwnyMezcBi5" version="22.1.18" type="device">
  <diagram name="Página-1" id="-uvo5hSMUj0Zq88gq9Mu">
    <mxGraphModel dx="1114" dy="664" grid="1" gridSize="10" guides="1" tooltips="1" connect="1" arrows="1" fold="1" page="1" pageScale="1" pageWidth="827" pageHeight="1169" math="0" shadow="0">
      <root>
        <mxCell id="0" />
        <mxCell id="1" parent="0" />
        <mxCell id="GhZKvq-SvASgw1FIx1WL-1" value="" style="rounded=0;whiteSpace=wrap;html=1;align=left;fontFamily=Verdana;" vertex="1" parent="1">
          <mxGeometry y="190" width="320" height="40" as="geometry" />
        </mxCell>
        <mxCell id="GhZKvq-SvASgw1FIx1WL-2" value="" style="rounded=0;whiteSpace=wrap;html=1;align=right;" vertex="1" parent="1">
          <mxGeometry y="230" width="320" height="40" as="geometry" />
        </mxCell>
        <mxCell id="GhZKvq-SvASgw1FIx1WL-3" value="" style="rounded=0;whiteSpace=wrap;html=1;fontSize=30;align=right;" vertex="1" parent="1">
          <mxGeometry y="270" width="320" height="60" as="geometry" />
        </mxCell>
        <mxCell id="GhZKvq-SvASgw1FIx1WL-4" value="" style="rounded=0;whiteSpace=wrap;html=1;fontFamily=Verdana;align=left;" vertex="1" parent="1">
          <mxGeometry y="330" width="320" height="40" as="geometry" />
        </mxCell>
        <mxCell id="GhZKvq-SvASgw1FIx1WL-5" value="" style="rounded=0;whiteSpace=wrap;html=1;" vertex="1" parent="1">
          <mxGeometry y="370" width="320" height="320" as="geometry" />
        </mxCell>
        <mxCell id="GhZKvq-SvASgw1FIx1WL-6" value="2 + 3 = 5&lt;br&gt;&lt;br style=&quot;font-size: 20px;&quot;&gt;3 + 5 = 8&lt;br&gt;&lt;br style=&quot;font-size: 20px;&quot;&gt;9 + 1 = 10" style="text;html=1;strokeColor=#666666;fillColor=#f5f5f5;align=center;verticalAlign=top;whiteSpace=wrap;rounded=0;fontSize=20;fontColor=#333333;" vertex="1" parent="1">
          <mxGeometry x="10" y="390" width="300" height="280" as="geometry" />
        </mxCell>
        <mxCell id="GhZKvq-SvASgw1FIx1WL-7" value="CALCULADORA BÁSICA" style="text;html=1;strokeColor=#666666;fillColor=#f5f5f5;align=left;verticalAlign=middle;whiteSpace=wrap;rounded=0;fontColor=#333333;" vertex="1" parent="1">
          <mxGeometry x="10" y="195" width="150" height="30" as="geometry" />
        </mxCell>
        <mxCell id="GhZKvq-SvASgw1FIx1WL-8" value="Historial" style="text;html=1;strokeColor=#666666;fillColor=#f5f5f5;align=left;verticalAlign=middle;whiteSpace=wrap;rounded=0;fontColor=#333333;" vertex="1" parent="1">
          <mxGeometry x="10" y="335" width="60" height="30" as="geometry" />
        </mxCell>
        <mxCell id="GhZKvq-SvASgw1FIx1WL-18" style="edgeStyle=orthogonalEdgeStyle;rounded=0;orthogonalLoop=1;jettySize=auto;html=1;entryX=0;entryY=0.5;entryDx=0;entryDy=0;startArrow=classic;startFill=1;" edge="1" parent="1" source="GhZKvq-SvASgw1FIx1WL-9" target="GhZKvq-SvASgw1FIx1WL-11">
          <mxGeometry relative="1" as="geometry" />
        </mxCell>
        <mxCell id="GhZKvq-SvASgw1FIx1WL-9" value="5" style="text;html=1;strokeColor=#666666;fillColor=#f5f5f5;align=right;verticalAlign=middle;whiteSpace=wrap;rounded=0;strokeWidth=1;fontSize=35;fontColor=#333333;" vertex="1" parent="1">
          <mxGeometry x="250" y="285" width="60" height="30" as="geometry" />
        </mxCell>
        <mxCell id="GhZKvq-SvASgw1FIx1WL-10" value="2 + 3 = 5" style="text;html=1;strokeColor=#666666;fillColor=#f5f5f5;align=right;verticalAlign=middle;whiteSpace=wrap;rounded=0;fontSize=15;fontColor=#333333;" vertex="1" parent="1">
          <mxGeometry x="220" y="235" width="90" height="30" as="geometry" />
        </mxCell>
        <mxCell id="GhZKvq-SvASgw1FIx1WL-11" value="Bind" style="rounded=0;whiteSpace=wrap;html=1;" vertex="1" parent="1">
          <mxGeometry x="400" y="300" width="180" height="35" as="geometry" />
        </mxCell>
        <mxCell id="GhZKvq-SvASgw1FIx1WL-12" value="" style="triangle;whiteSpace=wrap;html=1;" vertex="1" parent="1">
          <mxGeometry x="414" y="345" width="150" height="60" as="geometry" />
        </mxCell>
        <mxCell id="GhZKvq-SvASgw1FIx1WL-13" value="Teclas 0 - 9" style="text;html=1;strokeColor=none;fillColor=none;align=center;verticalAlign=middle;whiteSpace=wrap;rounded=0;" vertex="1" parent="1">
          <mxGeometry x="430" y="360" width="70" height="30" as="geometry" />
        </mxCell>
        <mxCell id="GhZKvq-SvASgw1FIx1WL-16" value="set" style="ellipse;whiteSpace=wrap;html=1;" vertex="1" parent="1">
          <mxGeometry x="580" y="352.5" width="80" height="45" as="geometry" />
        </mxCell>
        <mxCell id="GhZKvq-SvASgw1FIx1WL-17" value="Variable: Valor" style="rounded=0;whiteSpace=wrap;html=1;" vertex="1" parent="1">
          <mxGeometry x="680" y="352.5" width="100" height="45" as="geometry" />
        </mxCell>
      </root>
    </mxGraphModel>
  </diagram>
</mxfile>
